<?xml version="1.0" standalone="no"?>
<!DOCTYPE svg PUBLIC "-//W3C//DTD SVG 20010904//EN"
 "http://www.w3.org/TR/2001/REC-SVG-20010904/DTD/svg10.dtd">
<svg version="1.0" xmlns="http://www.w3.org/2000/svg"
 width="700.000000pt" height="700.000000pt" viewBox="0 0 700.000000 700.000000"
 preserveAspectRatio="xMidYMid meet">
<metadata>
Created by potrace 1.14, written by Peter Selinger 2001-2017
</metadata>
<g transform="translate(0.000000,700.000000) scale(0.100000,-0.100000)"
fill="#000000" stroke="none">
<path d="M3751 5405 l-58 -56 2 41 2 40 -50 -47 c-58 -54 -71 -67 -203 -193
-55 -52 -177 -169 -273 -260 -95 -91 -203 -194 -240 -230 l-67 -65 1 -297 1
-298 -277 0 c-237 0 -278 -2 -283 -15 -4 -10 -20 -15 -51 -15 l-45 0 0 -365 0
-365 -37 -1 c-39 -1 -350 0 -390 1 l-22 0 0 515 c0 283 -2 519 -6 525 -3 5
-32 10 -64 10 l-58 0 0 90 c0 49 -2 93 -6 96 -3 3 -30 7 -59 8 l-53 2 -3 62
c-3 67 -3 67 -74 64 -16 0 -29 2 -29 6 -1 4 -2 163 -3 354 -1 191 -5 350 -9
355 -15 14 -141 12 -158 -3 -8 -8 -34 -15 -57 -16 -35 -1 -42 -5 -43 -22 0
-12 -1 -169 -1 -349 -1 -260 -4 -331 -14 -342 -8 -8 -29 -12 -54 -9 l-40 4 0
-53 c0 -47 -3 -54 -27 -68 -16 -9 -43 -15 -61 -14 l-32 3 0 -74 c0 -41 -1 -77
-1 -81 -3 -17 -46 -38 -83 -40 -21 -1 -40 -4 -42 -6 -2 -2 -4 -467 -4 -1033
l0 -1029 -71 -33 c-39 -18 -107 -55 -152 -82 l-82 -48 -5 56 c-3 32 -4 87 -2
123 l4 65 75 23 c98 29 162 88 188 177 45 150 2 411 -117 709 -70 176 -156
279 -229 277 -115 -3 -261 -246 -349 -577 -29 -112 -35 -156 -34 -270 0 -85 4
-108 25 -155 14 -30 41 -70 60 -89 37 -37 117 -78 164 -84 l30 -4 2 -194 1
-194 -86 -82 -87 -83 -1 -102 c-1 -57 3 -109 9 -116 7 -9 703 -12 3417 -12
3088 0 3409 2 3414 16 3 9 6 60 6 114 l0 97 -42 41 c-53 51 -162 138 -180 144
-9 3 -13 38 -14 134 -1 71 2 131 6 134 5 3 62 4 129 4 144 -2 148 1 128 78
-36 133 -308 1075 -317 1096 -5 12 -18 22 -29 22 -15 0 -23 -10 -31 -42 -6
-24 -13 -50 -16 -58 -10 -28 -265 -915 -270 -936 -2 -12 -11 -40 -19 -64 -16
-46 -20 -89 -7 -91 4 -1 63 -3 132 -5 69 -1 127 -3 130 -3 7 -1 6 -161 0 -162
-3 0 -12 2 -20 5 -63 22 -172 57 -191 60 -13 3 -45 8 -71 12 l-48 7 0 793 c0
904 11 811 -97 809 l-62 -1 1 93 c1 58 -3 98 -10 105 -18 18 -598 17 -632 -1
-14 -7 -43 -14 -65 -15 l-40 -1 -2 -80 c-1 -44 -2 -85 -2 -92 -1 -6 -9 -10
-18 -8 -10 1 -26 -5 -36 -13 -11 -10 -33 -15 -57 -14 -27 2 -40 -1 -41 -10 0
-7 -1 -115 -2 -239 l-1 -226 -50 2 c-34 1 -55 -4 -66 -15 -9 -9 -33 -15 -60
-15 l-45 0 1 -92 c0 -78 -2 -93 -15 -94 -9 0 -58 -1 -108 -2 -76 -2 -93 1 -94
13 0 8 -1 214 -1 457 l-1 442 -37 44 c-20 25 -108 134 -196 244 -87 109 -163
203 -169 209 -5 6 -35 43 -65 82 -30 39 -63 71 -72 72 -9 0 -31 -18 -49 -39
l-31 -40 -23 27 c-13 15 -25 25 -27 22 -50 -64 -202 -251 -206 -254 -4 -2 -7
251 -6 562 0 351 -3 572 -9 580 -15 20 -26 15 -86 -43z m-2 -1228 c-22 -29
-44 -52 -47 -52 -3 0 -6 257 -7 570 l-1 570 45 48 46 48 3 -567 2 -566 -41
-51z m-2400 798 c0 -190 -3 -345 -7 -346 -4 0 -17 -2 -29 -5 -21 -4 -23 0 -24
44 0 26 -1 183 -2 349 l-2 303 32 0 32 0 0 -345z m106 -430 l0 -50 -45 1 -45
0 -1 51 -1 51 46 -1 46 -2 0 -50z m2961 -310 c114 -143 218 -271 231 -285 l23
-25 0 -447 c0 -247 -3 -448 -7 -449 -56 -5 -76 -2 -82 13 -3 9 -6 212 -5 452
l1 434 -80 99 c-44 54 -91 113 -106 131 -14 18 -31 39 -36 45 -6 7 -56 68
-111 137 l-101 125 21 28 c16 21 22 25 31 15 7 -7 106 -130 221 -273z m-2839
150 l-1 -85 -45 3 -46 3 -1 75 c-1 41 0 77 2 80 1 3 23 6 47 7 l44 3 0 -86z
m128 -604 l0 -495 -25 -6 c-14 -3 -35 -4 -47 -2 l-23 4 0 492 c0 271 2 495 4
497 2 2 24 4 48 5 l43 1 0 -496z m4311 27 c0 -49 -3 -88 -8 -89 -4 -1 -17 -1
-28 -1 -59 0 -56 -4 -57 90 l-1 88 47 0 46 -1 1 -87z m154 -295 c1 -192 1
-1343 0 -1356 0 -4 -20 -6 -45 -5 l-45 1 -1 46 c-2 113 1 171 10 213 10 45 7
190 -4 209 -5 7 -10 973 -6 1057 1 8 17 12 46 12 l45 0 0 -177z"/>
</g>
</svg>
